<svg xmlns="http://www.w3.org/2000/svg" viewBox="0 0 480 340" role="img" aria-label="Limestone retaining wall with terraced beds (illustration)" preserveAspectRatio="xMidYMid slice"><defs><linearGradient id="bs" x1="0" y1="0" x2="0" y2="1"><stop offset="0" stop-color="#f1e9d8"/><stop offset="1" stop-color="#e4d8c0"/></linearGradient><linearGradient id="bg" x1="0" y1="0" x2="0" y2="1"><stop offset="0" stop-color="#93ad66"/><stop offset="1" stop-color="#6c8848"/></linearGradient><linearGradient id="bw" x1="0" y1="0" x2="0" y2="1"><stop offset="0" stop-color="#7fa2ac"/><stop offset="1" stop-color="#5f8592"/></linearGradient></defs><rect width="480" height="340" fill="url(#bs)"/><circle cx="396" cy="62" r="26" fill="#f4d79a" opacity=".75"/><path d="M0 102 C60 86 120 108 190 94 S320 80 380 98 S450 90 480 96 V120 H0Z" fill="#b9c2a4"/><path d="M0 114 C80 100 160 118 250 106 S400 112 480 104 V120 H0Z" fill="#a3b08c"/><path d="M0 120 C120 112 300 126 480 116 V340 H0Z" fill="url(#bg)"/><path d="M0 150 C150 140 330 150 480 142 V200 H0Z" fill="#7f9a55"/><path d="M10 200 C102.0 200 378.0 200 470 200 Z" fill="#5a3f2c" stroke="#1f2a24" stroke-width="1"/><rect x="0" y="200" width="480" height="58" fill="#cdb98e" stroke="#1f2a24" stroke-width="1.2"/><rect x="1" y="201" width="32.4" height="9.7" rx="2.5" fill="#e8dcbd" stroke="#1f2a24" stroke-width=".8"/><rect x="35.4" y="201" width="25.1" height="9.7" rx="2.5" fill="#ddcda6" stroke="#1f2a24" stroke-width=".8"/><rect x="62.5" y="201" width="37.8" height="9.7" rx="2.5" fill="#cdb98e" stroke="#1f2a24" stroke-width=".8"/><rect x="102.3" y="201" width="34.5" height="9.7" rx="2.5" fill="#e8dcbd" stroke="#1f2a24" stroke-width=".8"/><rect x="138.8" y="201" width="23.3" height="9.7" rx="2.5" fill="#e8dcbd" stroke="#1f2a24" stroke-width=".8"/><rect x="164.1" y="201" width="24.2" height="9.7" rx="2.5" fill="#ddcda6" stroke="#1f2a24" stroke-width=".8"/><rect x="190.4" y="201" width="20.3" height="9.7" rx="2.5" fill="#e8dcbd" stroke="#1f2a24" stroke-width=".8"/><rect x="212.6" y="201" width="27.7" height="9.7" rx="2.5" fill="#ddcda6" stroke="#1f2a24" stroke-width=".8"/><rect x="242.3" y="201" width="34.3" height="9.7" rx="2.5" fill="#ddcda6" stroke="#1f2a24" stroke-width=".8"/><rect x="278.6" y="201" width="36.6" height="9.7" rx="2.5" fill="#e8dcbd" stroke="#1f2a24" stroke-width=".8"/><rect x="317.2" y="201" width="20.8" height="9.7" rx="2.5" fill="#e8dcbd" stroke="#1f2a24" stroke-width=".8"/><rect x="340" y="201" width="33.9" height="9.7" rx="2.5" fill="#cdb98e" stroke="#1f2a24" stroke-width=".8"/><rect x="375.9" y="201" width="31.1" height="9.7" rx="2.5" fill="#ddcda6" stroke="#1f2a24" stroke-width=".8"/><rect x="408.9" y="201" width="37.2" height="9.7" rx="2.5" fill="#e8dcbd" stroke="#1f2a24" stroke-width=".8"/><rect x="448.2" y="201" width="29" height="9.7" rx="2.5" fill="#ddcda6" stroke="#1f2a24" stroke-width=".8"/><rect x="1" y="212.7" width="32.9" height="12.8" rx="2.5" fill="#ddcda6" stroke="#1f2a24" stroke-width=".8"/><rect x="35.9" y="212.7" width="22.2" height="12.8" rx="2.5" fill="#ddcda6" stroke="#1f2a24" stroke-width=".8"/><rect x="60.2" y="212.7" width="28.2" height="12.8" rx="2.5" fill="#e8dcbd" stroke="#1f2a24" stroke-width=".8"/><rect x="90.3" y="212.7" width="33.1" height="12.8" rx="2.5" fill="#cdb98e" stroke="#1f2a24" stroke-width=".8"/><rect x="125.4" y="212.7" width="28.7" height="12.8" rx="2.5" fill="#ddcda6" stroke="#1f2a24" stroke-width=".8"/><rect x="156.2" y="212.7" width="32" height="12.8" rx="2.5" fill="#cdb98e" stroke="#1f2a24" stroke-width=".8"/><rect x="190.1" y="212.7" width="35.6" height="12.8" rx="2.5" fill="#ddcda6" stroke="#1f2a24" stroke-width=".8"/><rect x="227.7" y="212.7" width="21.3" height="12.8" rx="2.5" fill="#ddcda6" stroke="#1f2a24" stroke-width=".8"/><rect x="251.1" y="212.7" width="23.8" height="12.8" rx="2.5" fill="#e8dcbd" stroke="#1f2a24" stroke-width=".8"/><rect x="276.8" y="212.7" width="33.6" height="12.8" rx="2.5" fill="#e8dcbd" stroke="#1f2a24" stroke-width=".8"/><rect x="312.4" y="212.7" width="37.8" height="12.8" rx="2.5" fill="#ddcda6" stroke="#1f2a24" stroke-width=".8"/><rect x="352.2" y="212.7" width="22.2" height="12.8" rx="2.5" fill="#cdb98e" stroke="#1f2a24" stroke-width=".8"/><rect x="376.4" y="212.7" width="30.1" height="12.8" rx="2.5" fill="#cdb98e" stroke="#1f2a24" stroke-width=".8"/><rect x="408.5" y="212.7" width="23.6" height="12.8" rx="2.5" fill="#ddcda6" stroke="#1f2a24" stroke-width=".8"/><rect x="434.1" y="212.7" width="36" height="12.8" rx="2.5" fill="#cdb98e" stroke="#1f2a24" stroke-width=".8"/><rect x="472.1" y="212.7" width="6.9" height="12.8" rx="2.5" fill="#cdb98e" stroke="#1f2a24" stroke-width=".8"/><rect x="1" y="227.4" width="25.7" height="11" rx="2.5" fill="#cdb98e" stroke="#1f2a24" stroke-width=".8"/><rect x="28.7" y="227.4" width="27" height="11" rx="2.5" fill="#ddcda6" stroke="#1f2a24" stroke-width=".8"/><rect x="57.7" y="227.4" width="35" height="11" rx="2.5" fill="#ddcda6" stroke="#1f2a24" stroke-width=".8"/><rect x="94.7" y="227.4" width="32.9" height="11" rx="2.5" fill="#cdb98e" stroke="#1f2a24" stroke-width=".8"/><rect x="129.6" y="227.4" width="20.1" height="11" rx="2.5" fill="#ddcda6" stroke="#1f2a24" stroke-width=".8"/><rect x="151.7" y="227.4" width="29.9" height="11" rx="2.5" fill="#e8dcbd" stroke="#1f2a24" stroke-width=".8"/><rect x="183.6" y="227.4" width="29.4" height="11" rx="2.5" fill="#e8dcbd" stroke="#1f2a24" stroke-width=".8"/><rect x="215" y="227.4" width="31" height="11" rx="2.5" fill="#e8dcbd" stroke="#1f2a24" stroke-width=".8"/><rect x="247.9" y="227.4" width="37.6" height="11" rx="2.5" fill="#ddcda6" stroke="#1f2a24" stroke-width=".8"/><rect x="287.6" y="227.4" width="23.3" height="11" rx="2.5" fill="#ddcda6" stroke="#1f2a24" stroke-width=".8"/><rect x="312.8" y="227.4" width="31.3" height="11" rx="2.5" fill="#cdb98e" stroke="#1f2a24" stroke-width=".8"/><rect x="346.1" y="227.4" width="26.2" height="11" rx="2.5" fill="#e8dcbd" stroke="#1f2a24" stroke-width=".8"/><rect x="374.3" y="227.4" width="36.7" height="11" rx="2.5" fill="#ddcda6" stroke="#1f2a24" stroke-width=".8"/><rect x="413.1" y="227.4" width="21.9" height="11" rx="2.5" fill="#ddcda6" stroke="#1f2a24" stroke-width=".8"/><rect x="436.9" y="227.4" width="36.6" height="11" rx="2.5" fill="#ddcda6" stroke="#1f2a24" stroke-width=".8"/><rect x="475.6" y="227.4" width="3.4" height="11" rx="2.5" fill="#cdb98e" stroke="#1f2a24" stroke-width=".8"/><rect x="1" y="240.4" width="28.7" height="9.6" rx="2.5" fill="#e8dcbd" stroke="#1f2a24" stroke-width=".8"/><rect x="31.7" y="240.4" width="37.2" height="9.6" rx="2.5" fill="#cdb98e" stroke="#1f2a24" stroke-width=".8"/><rect x="70.9" y="240.4" width="36.5" height="9.6" rx="2.5" fill="#ddcda6" stroke="#1f2a24" stroke-width=".8"/><rect x="109.5" y="240.4" width="37.3" height="9.6" rx="2.5" fill="#e8dcbd" stroke="#1f2a24" stroke-width=".8"/><rect x="148.8" y="240.4" width="20.3" height="9.6" rx="2.5" fill="#cdb98e" stroke="#1f2a24" stroke-width=".8"/><rect x="171" y="240.4" width="28.8" height="9.6" rx="2.5" fill="#cdb98e" stroke="#1f2a24" stroke-width=".8"/><rect x="201.9" y="240.4" width="32" height="9.6" rx="2.5" fill="#ddcda6" stroke="#1f2a24" stroke-width=".8"/><rect x="235.9" y="240.4" width="22.9" height="9.6" rx="2.5" fill="#ddcda6" stroke="#1f2a24" stroke-width=".8"/><rect x="260.8" y="240.4" width="27.9" height="9.6" rx="2.5" fill="#cdb98e" stroke="#1f2a24" stroke-width=".8"/><rect x="290.7" y="240.4" width="33.9" height="9.6" rx="2.5" fill="#cdb98e" stroke="#1f2a24" stroke-width=".8"/><rect x="326.6" y="240.4" width="21" height="9.6" rx="2.5" fill="#cdb98e" stroke="#1f2a24" stroke-width=".8"/><rect x="349.7" y="240.4" width="20.9" height="9.6" rx="2.5" fill="#cdb98e" stroke="#1f2a24" stroke-width=".8"/><rect x="372.6" y="240.4" width="31.9" height="9.6" rx="2.5" fill="#ddcda6" stroke="#1f2a24" stroke-width=".8"/><rect x="406.4" y="240.4" width="27.6" height="9.6" rx="2.5" fill="#ddcda6" stroke="#1f2a24" stroke-width=".8"/><rect x="436" y="240.4" width="27.1" height="9.6" rx="2.5" fill="#cdb98e" stroke="#1f2a24" stroke-width=".8"/><rect x="465.1" y="240.4" width="13.9" height="9.6" rx="2.5" fill="#ddcda6" stroke="#1f2a24" stroke-width=".8"/><rect x="1" y="252.1" width="33.4" height="4.9" rx="2.5" fill="#cdb98e" stroke="#1f2a24" stroke-width=".8"/><rect x="36.4" y="252.1" width="20.9" height="4.9" rx="2.5" fill="#ddcda6" stroke="#1f2a24" stroke-width=".8"/><rect x="59.3" y="252.1" width="37.3" height="4.9" rx="2.5" fill="#e8dcbd" stroke="#1f2a24" stroke-width=".8"/><rect x="98.6" y="252.1" width="36.4" height="4.9" rx="2.5" fill="#cdb98e" stroke="#1f2a24" stroke-width=".8"/><rect x="137" y="252.1" width="20.5" height="4.9" rx="2.5" fill="#ddcda6" stroke="#1f2a24" stroke-width=".8"/><rect x="159.5" y="252.1" width="36.2" height="4.9" rx="2.5" fill="#cdb98e" stroke="#1f2a24" stroke-width=".8"/><rect x="197.7" y="252.1" width="34.3" height="4.9" rx="2.5" fill="#cdb98e" stroke="#1f2a24" stroke-width=".8"/><rect x="234" y="252.1" width="30.8" height="4.9" rx="2.5" fill="#cdb98e" stroke="#1f2a24" stroke-width=".8"/><rect x="266.8" y="252.1" width="28.7" height="4.9" rx="2.5" fill="#cdb98e" stroke="#1f2a24" stroke-width=".8"/><rect x="297.5" y="252.1" width="25.5" height="4.9" rx="2.5" fill="#e8dcbd" stroke="#1f2a24" stroke-width=".8"/><rect x="325.1" y="252.1" width="30.6" height="4.9" rx="2.5" fill="#ddcda6" stroke="#1f2a24" stroke-width=".8"/><rect x="357.7" y="252.1" width="33.8" height="4.9" rx="2.5" fill="#ddcda6" stroke="#1f2a24" stroke-width=".8"/><rect x="393.5" y="252.1" width="26.9" height="4.9" rx="2.5" fill="#ddcda6" stroke="#1f2a24" stroke-width=".8"/><rect x="422.4" y="252.1" width="37.2" height="4.9" rx="2.5" fill="#ddcda6" stroke="#1f2a24" stroke-width=".8"/><rect x="461.6" y="252.1" width="17.4" height="4.9" rx="2.5" fill="#cdb98e" stroke="#1f2a24" stroke-width=".8"/><rect x="-4" y="194" width="488" height="7" rx="2" fill="#e8dcbd" stroke="#1f2a24" stroke-width="1.1"/><path d="M17 196 C17 177.8 43 177.8 43 196Z" fill="#4f6b3c" stroke="#1f2a24" stroke-width="1"/><path d="M23.5 189.5 q6.5 -5.2 13 0" stroke="#86a364" stroke-width="1.4" fill="none"/><path d="M67 196 C67 175 97 175 97 196Z" fill="#62804a" stroke="#1f2a24" stroke-width="1"/><path d="M74.5 188.5 q7.5 -6 15 0" stroke="#86a364" stroke-width="1.4" fill="none"/><path d="M117 196 C117 172.2 151 172.2 151 196Z" fill="#3f5a33" stroke="#1f2a24" stroke-width="1"/><path d="M125.5 187.5 q8.5 -6.8 17 0" stroke="#86a364" stroke-width="1.4" fill="none"/><path d="M173 196 C173 177.8 199 177.8 199 196Z" fill="#4f6b3c" stroke="#1f2a24" stroke-width="1"/><path d="M179.5 189.5 q6.5 -5.2 13 0" stroke="#86a364" stroke-width="1.4" fill="none"/><path d="M223 196 C223 175 253 175 253 196Z" fill="#62804a" stroke="#1f2a24" stroke-width="1"/><path d="M230.5 188.5 q7.5 -6 15 0" stroke="#86a364" stroke-width="1.4" fill="none"/><path d="M273 196 C273 172.2 307 172.2 307 196Z" fill="#3f5a33" stroke="#1f2a24" stroke-width="1"/><path d="M281.5 187.5 q8.5 -6.8 17 0" stroke="#86a364" stroke-width="1.4" fill="none"/><path d="M329 196 C329 177.8 355 177.8 355 196Z" fill="#4f6b3c" stroke="#1f2a24" stroke-width="1"/><path d="M335.5 189.5 q6.5 -5.2 13 0" stroke="#86a364" stroke-width="1.4" fill="none"/><path d="M379 196 C379 175 409 175 409 196Z" fill="#62804a" stroke="#1f2a24" stroke-width="1"/><path d="M386.5 188.5 q7.5 -6 15 0" stroke="#86a364" stroke-width="1.4" fill="none"/><path d="M429 196 C429 172.2 463 172.2 463 196Z" fill="#3f5a33" stroke="#1f2a24" stroke-width="1"/><path d="M437.5 187.5 q8.5 -6.8 17 0" stroke="#86a364" stroke-width="1.4" fill="none"/><path d="M450.8 198 V194" stroke="#3f5a33" stroke-width="1"/><circle cx="450.8" cy="194" r="3.4" fill="#c4553b" stroke="#1f2a24" stroke-width=".6"/><path d="M215.7 198 V186.2" stroke="#3f5a33" stroke-width="1"/><circle cx="215.7" cy="186.2" r="3.7" fill="#9a5a8a" stroke="#1f2a24" stroke-width=".6"/><path d="M46.6 198 V192.2" stroke="#3f5a33" stroke-width="1"/><circle cx="46.6" cy="192.2" r="2.9" fill="#c4553b" stroke="#1f2a24" stroke-width=".6"/><path d="M286.5 198 V183" stroke="#3f5a33" stroke-width="1"/><circle cx="286.5" cy="183" r="3.5" fill="#f1e6d0" stroke="#1f2a24" stroke-width=".6"/><path d="M32.3 198 V183.7" stroke="#3f5a33" stroke-width="1"/><circle cx="32.3" cy="183.7" r="2.9" fill="#9a5a8a" stroke="#1f2a24" stroke-width=".6"/><path d="M97.5 198 V184.1" stroke="#3f5a33" stroke-width="1"/><circle cx="97.5" cy="184.1" r="3.5" fill="#c4553b" stroke="#1f2a24" stroke-width=".6"/><path d="M291.7 198 V192.4" stroke="#3f5a33" stroke-width="1"/><circle cx="291.7" cy="192.4" r="2.9" fill="#f1e6d0" stroke="#1f2a24" stroke-width=".6"/><path d="M369.3 198 V182.6" stroke="#3f5a33" stroke-width="1"/><circle cx="369.3" cy="182.6" r="2.8" fill="#e3b04b" stroke="#1f2a24" stroke-width=".6"/><path d="M134.5 198 V186.3" stroke="#3f5a33" stroke-width="1"/><circle cx="134.5" cy="186.3" r="2.5" fill="#f1e6d0" stroke="#1f2a24" stroke-width=".6"/><path d="M254.6 198 V195.5" stroke="#3f5a33" stroke-width="1"/><circle cx="254.6" cy="195.5" r="3.2" fill="#9a5a8a" stroke="#1f2a24" stroke-width=".6"/><path d="M248 198 V190.3" stroke="#3f5a33" stroke-width="1"/><circle cx="248" cy="190.3" r="2.9" fill="#e3b04b" stroke="#1f2a24" stroke-width=".6"/><path d="M181.9 198 V187.8" stroke="#3f5a33" stroke-width="1"/><circle cx="181.9" cy="187.8" r="3.3" fill="#9a5a8a" stroke="#1f2a24" stroke-width=".6"/><path d="M268.2 198 V188.6" stroke="#3f5a33" stroke-width="1"/><circle cx="268.2" cy="188.6" r="2.5" fill="#f1e6d0" stroke="#1f2a24" stroke-width=".6"/><path d="M468.4 198 V191" stroke="#3f5a33" stroke-width="1"/><circle cx="468.4" cy="191" r="3.6" fill="#f1e6d0" stroke="#1f2a24" stroke-width=".6"/><path d="M36.7 198 V184.2" stroke="#3f5a33" stroke-width="1"/><circle cx="36.7" cy="184.2" r="3.2" fill="#e3b04b" stroke="#1f2a24" stroke-width=".6"/><path d="M194.3 198 V194.6" stroke="#3f5a33" stroke-width="1"/><circle cx="194.3" cy="194.6" r="2.7" fill="#e3b04b" stroke="#1f2a24" stroke-width=".6"/><path d="M261.4 198 V191.1" stroke="#3f5a33" stroke-width="1"/><circle cx="261.4" cy="191.1" r="3.9" fill="#9a5a8a" stroke="#1f2a24" stroke-width=".6"/><path d="M299.6 198 V189.8" stroke="#3f5a33" stroke-width="1"/><circle cx="299.6" cy="189.8" r="3.3" fill="#c4553b" stroke="#1f2a24" stroke-width=".6"/><path d="M376.1 198 V186.9" stroke="#3f5a33" stroke-width="1"/><circle cx="376.1" cy="186.9" r="3.4" fill="#e3b04b" stroke="#1f2a24" stroke-width=".6"/><path d="M56.5 198 V193.3" stroke="#3f5a33" stroke-width="1"/><circle cx="56.5" cy="193.3" r="3.7" fill="#c4553b" stroke="#1f2a24" stroke-width=".6"/><path d="M433.7 198 V189.6" stroke="#3f5a33" stroke-width="1"/><circle cx="433.7" cy="189.6" r="3.2" fill="#c4553b" stroke="#1f2a24" stroke-width=".6"/><path d="M251 198 V187.8" stroke="#3f5a33" stroke-width="1"/><circle cx="251" cy="187.8" r="3.2" fill="#f1e6d0" stroke="#1f2a24" stroke-width=".6"/><path d="M40.3 198 V186" stroke="#3f5a33" stroke-width="1"/><circle cx="40.3" cy="186" r="3.7" fill="#c4553b" stroke="#1f2a24" stroke-width=".6"/><path d="M289.9 198 V182.8" stroke="#3f5a33" stroke-width="1"/><circle cx="289.9" cy="182.8" r="2.7" fill="#c4553b" stroke="#1f2a24" stroke-width=".6"/><path d="M171.1 198 V195.1" stroke="#3f5a33" stroke-width="1"/><circle cx="171.1" cy="195.1" r="2.7" fill="#c4553b" stroke="#1f2a24" stroke-width=".6"/><path d="M328.4 198 V189.9" stroke="#3f5a33" stroke-width="1"/><circle cx="328.4" cy="189.9" r="2.7" fill="#9a5a8a" stroke="#1f2a24" stroke-width=".6"/><path d="M45.2 198 V193.3" stroke="#3f5a33" stroke-width="1"/><circle cx="45.2" cy="193.3" r="4" fill="#c4553b" stroke="#1f2a24" stroke-width=".6"/><path d="M255.8 198 V189.2" stroke="#3f5a33" stroke-width="1"/><circle cx="255.8" cy="189.2" r="2.7" fill="#c4553b" stroke="#1f2a24" stroke-width=".6"/><path d="M137.1 198 V194.6" stroke="#3f5a33" stroke-width="1"/><circle cx="137.1" cy="194.6" r="3.4" fill="#f1e6d0" stroke="#1f2a24" stroke-width=".6"/><path d="M195.3 198 V194.4" stroke="#3f5a33" stroke-width="1"/><circle cx="195.3" cy="194.4" r="2.5" fill="#e3b04b" stroke="#1f2a24" stroke-width=".6"/><path d="M183.8 198 V184.1" stroke="#3f5a33" stroke-width="1"/><circle cx="183.8" cy="184.1" r="2.7" fill="#c4553b" stroke="#1f2a24" stroke-width=".6"/><path d="M356.7 198 V187.1" stroke="#3f5a33" stroke-width="1"/><circle cx="356.7" cy="187.1" r="3.6" fill="#c4553b" stroke="#1f2a24" stroke-width=".6"/><path d="M340.3 198 V189.5" stroke="#3f5a33" stroke-width="1"/><circle cx="340.3" cy="189.5" r="3.8" fill="#e3b04b" stroke="#1f2a24" stroke-width=".6"/><path d="M61.8 198 V183.1" stroke="#3f5a33" stroke-width="1"/><circle cx="61.8" cy="183.1" r="2.7" fill="#e3b04b" stroke="#1f2a24" stroke-width=".6"/><rect x="60" y="262" width="360" height="40" fill="#cdb98e" stroke="#1f2a24" stroke-width="1.2"/><rect x="61" y="263" width="37.1" height="12.7" rx="2.5" fill="#ddcda6" stroke="#1f2a24" stroke-width=".8"/><rect x="100.1" y="263" width="20.3" height="12.7" rx="2.5" fill="#cdb98e" stroke="#1f2a24" stroke-width=".8"/><rect x="122.4" y="263" width="27.6" height="12.7" rx="2.5" fill="#e8dcbd" stroke="#1f2a24" stroke-width=".8"/><rect x="152" y="263" width="26.4" height="12.7" rx="2.5" fill="#e8dcbd" stroke="#1f2a24" stroke-width=".8"/><rect x="180.5" y="263" width="23.5" height="12.7" rx="2.5" fill="#cdb98e" stroke="#1f2a24" stroke-width=".8"/><rect x="205.9" y="263" width="20.3" height="12.7" rx="2.5" fill="#e8dcbd" stroke="#1f2a24" stroke-width=".8"/><rect x="228.2" y="263" width="28.2" height="12.7" rx="2.5" fill="#ddcda6" stroke="#1f2a24" stroke-width=".8"/><rect x="258.4" y="263" width="21.9" height="12.7" rx="2.5" fill="#e8dcbd" stroke="#1f2a24" stroke-width=".8"/><rect x="282.3" y="263" width="29" height="12.7" rx="2.5" fill="#ddcda6" stroke="#1f2a24" stroke-width=".8"/><rect x="313.2" y="263" width="29.2" height="12.7" rx="2.5" fill="#e8dcbd" stroke="#1f2a24" stroke-width=".8"/><rect x="344.5" y="263" width="27.8" height="12.7" rx="2.5" fill="#ddcda6" stroke="#1f2a24" stroke-width=".8"/><rect x="374.2" y="263" width="23.7" height="12.7" rx="2.5" fill="#ddcda6" stroke="#1f2a24" stroke-width=".8"/><rect x="399.9" y="263" width="19.1" height="12.7" rx="2.5" fill="#e8dcbd" stroke="#1f2a24" stroke-width=".8"/><rect x="61" y="277.7" width="29.3" height="9.7" rx="2.5" fill="#e8dcbd" stroke="#1f2a24" stroke-width=".8"/><rect x="92.3" y="277.7" width="33.7" height="9.7" rx="2.5" fill="#cdb98e" stroke="#1f2a24" stroke-width=".8"/><rect x="128" y="277.7" width="37.4" height="9.7" rx="2.5" fill="#cdb98e" stroke="#1f2a24" stroke-width=".8"/><rect x="167.5" y="277.7" width="31.9" height="9.7" rx="2.5" fill="#cdb98e" stroke="#1f2a24" stroke-width=".8"/><rect x="201.3" y="277.7" width="30.3" height="9.7" rx="2.5" fill="#cdb98e" stroke="#1f2a24" stroke-width=".8"/><rect x="233.7" y="277.7" width="23.2" height="9.7" rx="2.5" fill="#cdb98e" stroke="#1f2a24" stroke-width=".8"/><rect x="258.9" y="277.7" width="30.6" height="9.7" rx="2.5" fill="#cdb98e" stroke="#1f2a24" stroke-width=".8"/><rect x="291.5" y="277.7" width="32.2" height="9.7" rx="2.5" fill="#ddcda6" stroke="#1f2a24" stroke-width=".8"/><rect x="325.6" y="277.7" width="23.3" height="9.7" rx="2.5" fill="#ddcda6" stroke="#1f2a24" stroke-width=".8"/><rect x="350.9" y="277.7" width="29.6" height="9.7" rx="2.5" fill="#e8dcbd" stroke="#1f2a24" stroke-width=".8"/><rect x="382.5" y="277.7" width="34.7" height="9.7" rx="2.5" fill="#ddcda6" stroke="#1f2a24" stroke-width=".8"/><rect x="61" y="289.4" width="27.7" height="9.3" rx="2.5" fill="#e8dcbd" stroke="#1f2a24" stroke-width=".8"/><rect x="90.7" y="289.4" width="25" height="9.3" rx="2.5" fill="#e8dcbd" stroke="#1f2a24" stroke-width=".8"/><rect x="117.6" y="289.4" width="25.1" height="9.3" rx="2.5" fill="#e8dcbd" stroke="#1f2a24" stroke-width=".8"/><rect x="144.7" y="289.4" width="26" height="9.3" rx="2.5" fill="#cdb98e" stroke="#1f2a24" stroke-width=".8"/><rect x="172.6" y="289.4" width="36.2" height="9.3" rx="2.5" fill="#e8dcbd" stroke="#1f2a24" stroke-width=".8"/><rect x="210.8" y="289.4" width="25.5" height="9.3" rx="2.5" fill="#cdb98e" stroke="#1f2a24" stroke-width=".8"/><rect x="238.3" y="289.4" width="29.9" height="9.3" rx="2.5" fill="#cdb98e" stroke="#1f2a24" stroke-width=".8"/><rect x="270.2" y="289.4" width="22.7" height="9.3" rx="2.5" fill="#e8dcbd" stroke="#1f2a24" stroke-width=".8"/><rect x="294.9" y="289.4" width="34.1" height="9.3" rx="2.5" fill="#e8dcbd" stroke="#1f2a24" stroke-width=".8"/><rect x="331" y="289.4" width="34.3" height="9.3" rx="2.5" fill="#cdb98e" stroke="#1f2a24" stroke-width=".8"/><rect x="367.3" y="289.4" width="24.3" height="9.3" rx="2.5" fill="#e8dcbd" stroke="#1f2a24" stroke-width=".8"/><rect x="393.6" y="289.4" width="22.6" height="9.3" rx="2.5" fill="#e8dcbd" stroke="#1f2a24" stroke-width=".8"/><rect x="61" y="300.7" width="34.5" height="0.3" rx="2.5" fill="#ddcda6" stroke="#1f2a24" stroke-width=".8"/><rect x="97.5" y="300.7" width="31.4" height="0.3" rx="2.5" fill="#cdb98e" stroke="#1f2a24" stroke-width=".8"/><rect x="130.9" y="300.7" width="20.4" height="0.3" rx="2.5" fill="#ddcda6" stroke="#1f2a24" stroke-width=".8"/><rect x="153.3" y="300.7" width="32.4" height="0.3" rx="2.5" fill="#ddcda6" stroke="#1f2a24" stroke-width=".8"/><rect x="187.7" y="300.7" width="34.5" height="0.3" rx="2.5" fill="#ddcda6" stroke="#1f2a24" stroke-width=".8"/><rect x="224.2" y="300.7" width="29.7" height="0.3" rx="2.5" fill="#cdb98e" stroke="#1f2a24" stroke-width=".8"/><rect x="255.9" y="300.7" width="33.5" height="0.3" rx="2.5" fill="#cdb98e" stroke="#1f2a24" stroke-width=".8"/><rect x="291.4" y="300.7" width="20.3" height="0.3" rx="2.5" fill="#cdb98e" stroke="#1f2a24" stroke-width=".8"/><rect x="313.6" y="300.7" width="28.8" height="0.3" rx="2.5" fill="#ddcda6" stroke="#1f2a24" stroke-width=".8"/><rect x="344.5" y="300.7" width="21.4" height="0.3" rx="2.5" fill="#cdb98e" stroke="#1f2a24" stroke-width=".8"/><rect x="367.8" y="300.7" width="29.9" height="0.3" rx="2.5" fill="#cdb98e" stroke="#1f2a24" stroke-width=".8"/><rect x="399.7" y="300.7" width="19.3" height="0.3" rx="2.5" fill="#ddcda6" stroke="#1f2a24" stroke-width=".8"/><rect x="56" y="256" width="368" height="7" rx="2" fill="#e8dcbd" stroke="#1f2a24" stroke-width="1.1"/><path d="M312.2 260 V246.2" stroke="#3f5a33" stroke-width="1"/><circle cx="312.2" cy="246.2" r="2.7" fill="#e3b04b" stroke="#1f2a24" stroke-width=".6"/><path d="M126.9 260 V255.6" stroke="#3f5a33" stroke-width="1"/><circle cx="126.9" cy="255.6" r="3.5" fill="#e3b04b" stroke="#1f2a24" stroke-width=".6"/><path d="M409.6 260 V246.7" stroke="#3f5a33" stroke-width="1"/><circle cx="409.6" cy="246.7" r="3.6" fill="#f1e6d0" stroke="#1f2a24" stroke-width=".6"/><path d="M330.4 260 V251.8" stroke="#3f5a33" stroke-width="1"/><circle cx="330.4" cy="251.8" r="2.4" fill="#e3b04b" stroke="#1f2a24" stroke-width=".6"/><path d="M127.3 260 V251.1" stroke="#3f5a33" stroke-width="1"/><circle cx="127.3" cy="251.1" r="3.5" fill="#f1e6d0" stroke="#1f2a24" stroke-width=".6"/><path d="M239.9 260 V244.1" stroke="#3f5a33" stroke-width="1"/><circle cx="239.9" cy="244.1" r="3.7" fill="#f1e6d0" stroke="#1f2a24" stroke-width=".6"/><path d="M123.6 260 V253.4" stroke="#3f5a33" stroke-width="1"/><circle cx="123.6" cy="253.4" r="2.5" fill="#f1e6d0" stroke="#1f2a24" stroke-width=".6"/><path d="M290.7 260 V248.7" stroke="#3f5a33" stroke-width="1"/><circle cx="290.7" cy="248.7" r="3.9" fill="#e3b04b" stroke="#1f2a24" stroke-width=".6"/><path d="M177.5 260 V245.5" stroke="#3f5a33" stroke-width="1"/><circle cx="177.5" cy="245.5" r="2.9" fill="#e3b04b" stroke="#1f2a24" stroke-width=".6"/><path d="M153.6 260 V249.6" stroke="#3f5a33" stroke-width="1"/><circle cx="153.6" cy="249.6" r="3.7" fill="#e3b04b" stroke="#1f2a24" stroke-width=".6"/><path d="M407.3 260 V246" stroke="#3f5a33" stroke-width="1"/><circle cx="407.3" cy="246" r="3.3" fill="#f1e6d0" stroke="#1f2a24" stroke-width=".6"/><path d="M163.1 260 V255.2" stroke="#3f5a33" stroke-width="1"/><circle cx="163.1" cy="255.2" r="3.7" fill="#f1e6d0" stroke="#1f2a24" stroke-width=".6"/><path d="M292 260 V253.5" stroke="#3f5a33" stroke-width="1"/><circle cx="292" cy="253.5" r="3.5" fill="#e3b04b" stroke="#1f2a24" stroke-width=".6"/><path d="M401.1 260 V256.2" stroke="#3f5a33" stroke-width="1"/><circle cx="401.1" cy="256.2" r="4" fill="#f1e6d0" stroke="#1f2a24" stroke-width=".6"/><path d="M330.1 260 V250.6" stroke="#3f5a33" stroke-width="1"/><circle cx="330.1" cy="250.6" r="2.5" fill="#e3b04b" stroke="#1f2a24" stroke-width=".6"/><path d="M116.5 260 V253.6" stroke="#3f5a33" stroke-width="1"/><circle cx="116.5" cy="253.6" r="3" fill="#e3b04b" stroke="#1f2a24" stroke-width=".6"/><path d="M340.2 260 V252.4" stroke="#3f5a33" stroke-width="1"/><circle cx="340.2" cy="252.4" r="3" fill="#f1e6d0" stroke="#1f2a24" stroke-width=".6"/><path d="M180.8 260 V247.2" stroke="#3f5a33" stroke-width="1"/><circle cx="180.8" cy="247.2" r="2.9" fill="#f1e6d0" stroke="#1f2a24" stroke-width=".6"/><path d="M371.2 260 V245.3" stroke="#3f5a33" stroke-width="1"/><circle cx="371.2" cy="245.3" r="2.5" fill="#e3b04b" stroke="#1f2a24" stroke-width=".6"/><path d="M223.3 260 V253.6" stroke="#3f5a33" stroke-width="1"/><circle cx="223.3" cy="253.6" r="3.7" fill="#f1e6d0" stroke="#1f2a24" stroke-width=".6"/><path d="M100.5 260 V256.9" stroke="#3f5a33" stroke-width="1"/><circle cx="100.5" cy="256.9" r="3.5" fill="#f1e6d0" stroke="#1f2a24" stroke-width=".6"/><path d="M345.9 260 V250.5" stroke="#3f5a33" stroke-width="1"/><circle cx="345.9" cy="250.5" r="3.8" fill="#f1e6d0" stroke="#1f2a24" stroke-width=".6"/><path d="M0 302 C120 296 360 306 480 298 V340 H0Z" fill="#6c8848"/><path d="M66.6 150 C67.5 130.4 65.8 118.7 68.3 110.9 L72.5 110.9 C74.2 122.6 72.5 134.4 74.2 150Z" fill="#6b4f37" stroke="#1f2a24" stroke-width="1.1"/><circle cx="47.9" cy="99" r="18.7" fill="#3f5a33" stroke="#1f2a24" stroke-width="1"/><circle cx="90.4" cy="97.3" r="18.7" fill="#4f6b3c" stroke="#1f2a24" stroke-width="1"/><circle cx="70" cy="83.7" r="23.8" fill="#62804a" stroke="#1f2a24" stroke-width="1"/><circle cx="58.1" cy="71.8" r="17" fill="#3f5a33" stroke="#1f2a24" stroke-width="1"/><circle cx="83.6" cy="70.1" r="17" fill="#4f6b3c" stroke="#1f2a24" stroke-width="1"/><circle cx="70" cy="100.7" r="17" fill="#62804a" stroke="#1f2a24" stroke-width="1"/><circle cx="63.7" cy="102.7" r="3.1" fill="#86a364" opacity=".8"/><circle cx="55.4" cy="100.3" r="2.8" fill="#86a364" opacity=".8"/><circle cx="46.7" cy="103.8" r="2.1" fill="#86a364" opacity=".8"/><circle cx="60.1" cy="81.3" r="2.7" fill="#86a364" opacity=".8"/><circle cx="50.8" cy="92.5" r="3.1" fill="#86a364" opacity=".8"/><circle cx="70.6" cy="97.1" r="2.8" fill="#86a364" opacity=".8"/><circle cx="86.6" cy="71" r="2.3" fill="#86a364" opacity=".8"/><circle cx="68.4" cy="67.7" r="3.4" fill="#86a364" opacity=".8"/><circle cx="76.9" cy="67.5" r="2.7" fill="#86a364" opacity=".8"/><path d="M406.8 146 C407.6 127.6 406 116.6 408.4 109.2 L412.4 109.2 C414 120.2 412.4 131.3 414 146Z" fill="#6b4f37" stroke="#1f2a24" stroke-width="1.1"/><path d="M382.8 125.8 Q410 105 437.2 125.8 Q410 119.4 382.8 125.8Z" fill="#2e4636" stroke="#1f2a24" stroke-width="1"/><path d="M387.6 113.8 Q410 93 432.4 113.8 Q410 107.4 387.6 113.8Z" fill="#3f5a33" stroke="#1f2a24" stroke-width="1"/><path d="M392.4 101.8 Q410 81 427.6 101.8 Q410 95.4 392.4 101.8Z" fill="#2e4636" stroke="#1f2a24" stroke-width="1"/><path d="M397.2 89.8 Q410 69 422.8 89.8 Q410 83.4 397.2 89.8Z" fill="#3f5a33" stroke="#1f2a24" stroke-width="1"/><path d="M402 77.8 Q410 57 418 77.8 Q410 71.4 402 77.8Z" fill="#2e4636" stroke="#1f2a24" stroke-width="1"/></svg>